# xmcd
#
# Track frame offsets: 
#        150
#        13981
#        28394
#        42097
#        55923
#        67945
#        81165
#        95079
#        108681
#        123240
#        137234
#        148977
#        163716
#        176116
#        189464
#        202448
#        217493
#        230294
#        242590
#        257611
#        270283
#        283898
#        296738
#        309471
#        322066
#
# Disc length: 4458 seconds
#
# Revision: 0
# Processed by: cddbd v1.5.2PL0 Copyright (c) Steve Scherf et al.
# Submitted via: ExactAudioCopy v0.99pb4
#
DISCID=96116819
DTITLE=Bob Wills and his Texas Playboys - King of Western Swing - Live
DTITLE=Dallas - Chicago [CD1]
DYEAR=2007
DGENRE=Western Swing
TTITLE0=1. Sunbonnet Sue
TTITLE1=2. Nancy Jane
TTITLE2=3. Osage Stomp
TTITLE3=4. Get with It
TTITLE4=5. I Can't Give You Anything But Love
TTITLE5=6. Spanish Two Step
TTITLE6=7. Maiden's Prayer
TTITLE7=8. Wang Wang Blues
TTITLE8=9. St. Louis Blues
TTITLE9=10. Good Old Oklahoma
TTITLE10=11. Blue River
TTITLE11=12. Mexicali Rose
TTITLE12=13. I Ain't Got Nobody
TTITLE13=14. Never No More Blues
TTITLE14=15. Who Walks in When I Walk Out
TTITLE15=16. Old Fashioned Love
TTITLE16=17. Oklahoma Rag
TTITLE17=18. Black and Blue Rag
TTITLE18=19. Sittin' on Top of the World
TTITLE19=20. Four or Five Times
TTITLE20=21. I Can't Be Satisfied
TTITLE21=22. Smith's Reel
TTITLE22=23. Harmony
TTITLE23=24. She's Killing Me
TTITLE24=25. Weary of the Same Old Stuff
EXTD=
EXTT0=
EXTT1=
EXTT2=
EXTT3=
EXTT4=
EXTT5=
EXTT6=
EXTT7=
EXTT8=
EXTT9=
EXTT10=
EXTT11=
EXTT12=
EXTT13=
EXTT14=
EXTT15=
EXTT16=
EXTT17=
EXTT18=
EXTT19=
EXTT20=
EXTT21=
EXTT22=
EXTT23=
EXTT24=
PLAYORDER=
